<svg id="Layer_1" data-name="Layer 1" xmlns="http://www.w3.org/2000/svg" viewBox="0 0 1024 1024"><defs><style>.cls-1{fill:#3ac6fc;}.cls-2{fill:#f29100;}.cls-10,.cls-3,.cls-6{fill:none;}.cls-4{fill:#d9d9d9;}.cls-5{fill:#eb6608;}.cls-10,.cls-6{stroke:#b1b1b1;stroke-miterlimit:10;}.cls-6{stroke-width:1.38px;}.cls-7{fill:#e89f3c;}.cls-8{fill:#009ee2;}.cls-9{fill:#2a84ae;}.cls-10{stroke-width:1.21px;}.cls-11{fill:#d10a11;}.cls-12{fill:#ba181c;}.cls-13{fill:#009540;}.cls-14{fill:#037c34;}.cls-15{fill:#467d8c;}.cls-16{fill:#315e6d;}.cls-17{fill:#bd1622;}.cls-18{fill:#ef8130;}.cls-19{fill:#e26b1b;}.cls-20{fill:#f29a57;}.cls-21{fill:#ed863a;}.cls-22{fill:#3c3c3b;}.cls-23{fill:#232323;}.cls-24{fill:#fff;}.cls-25{fill:#846541;}.cls-26{fill:#e8b2c8;}.cls-27{fill:#98794d;}.cls-28{fill:#b69f7e;}.cls-29{fill:#876844;}.cls-30{fill:#dda6c0;}.cls-31{fill:#1d1d1b;}.cls-32{fill:#1d70b7;}.cls-33{fill:#826543;}.cls-34{fill:#d0995c;}.cls-35{fill:#f1c300;}.cls-36{fill:#e1a87a;}.cls-37{fill:#cececd;}.cls-38{fill:#e95724;}.cls-39{fill:#bf8954;}.cls-40{fill:#f3cd0d;}.cls-41{fill:#1d1f1c;}.cls-42{fill:#dcdddd;}.cls-43{fill:#b7b7b7;}.cls-44{fill:#ea6347;}.cls-45{fill:#d74417;}.cls-46{fill:#e0b900;}</style></defs><circle class="cls-1" cx="512" cy="512" r="512"/><path class="cls-2" d="M787.48,778.75a31.17,31.17,0,0,1-9.48,22.4q-42.62,47.72-85.26,95.48l-1.69,1.88-2.67,3A45.14,45.14,0,0,1,656,915.19H276.13a1.71,1.71,0,0,1-1.71-1.71v-5.26a1.71,1.71,0,0,1,1.71-1.71H651c24,0,43.65-17.94,45.92-40.88.12-1.46.2-2.94.2-4.42V857.7c0-25.3-20.88-45.81-46.65-45.81H276.13a1.72,1.72,0,0,1-1.71-1.71v-5.6a1.71,1.71,0,0,1,1.14-1.61l155.11-55.34a1.9,1.9,0,0,1,.58-.09h325a31.18,31.18,0,0,1,31.22,31.21Z"/><path class="cls-3" d="M780.86,797.94,778,801.15"/><path class="cls-4" d="M697.07,857.7v3.51c0,1.48-.08,2.95-.2,4.41-2.27,23-22,40.89-45.92,40.89H282.41V811.89h368C676.19,811.89,697.07,832.4,697.07,857.7Z"/><path class="cls-5" d="M787.48,778.75a31.17,31.17,0,0,1-9.48,22.4q-42.62,47.72-85.26,95.48l-1.69,1.88-2.67,3A45.14,45.14,0,0,1,656,915.19H276.79a2.37,2.37,0,0,1-2.37-2.37v-3.94a2.37,2.37,0,0,1,2.37-2.37H651c24,0,43.65-17.94,45.92-40.88.12-1.46.2-2.94.2-4.42V857.7c0-22.29-16.21-40.86-37.68-45L752.25,748a2.32,2.32,0,0,1,1.35-.42h2.66a31.18,31.18,0,0,1,31.22,31.21Z"/><path class="cls-6" d="M282.41,831.81H659.23"/><path class="cls-6" d="M282.41,849.9H659.23"/><path class="cls-6" d="M282.41,868H659.23"/><path class="cls-6" d="M282.41,886.59H659.23"/><path class="cls-7" d="M288,820.13v.59h-.34C287.82,820.53,287.93,820.33,288,820.13Z"/><path class="cls-8" d="M285.63,718A27.4,27.4,0,0,0,295.49,737l81.3,77.59,1.61,1.53c.84.81,1.69,1.63,2.55,2.44a39.59,39.59,0,0,0,29.32,9.7l332.39-26.57A1.5,1.5,0,0,0,744,800l-.37-4.61a1.5,1.5,0,0,0-1.61-1.37l-328,26.22c-21,1.68-39.45-12.64-43-32.56-.22-1.27-.39-2.55-.49-3.85l-.24-3.07c-1.77-22.14,15.07-41.56,37.61-43.36l327.55-26.19a1.49,1.49,0,0,0,1.37-1.61l-.39-4.9a1.49,1.49,0,0,0-1.11-1.33L595.7,665.84a1.48,1.48,0,0,0-.51-.05L310.77,688.53A27.39,27.39,0,0,0,285.63,718Z"/><path class="cls-3" d="M292.77,734.37l2.72,2.6"/><path class="cls-4" d="M370.28,780.79l.24,3.07c.1,1.3.27,2.59.49,3.86,3.59,19.92,22.08,34.24,43,32.56L736.56,794.5l-6.62-82.81L407.89,737.44C385.34,739.24,368.5,758.65,370.28,780.79Z"/><path class="cls-9" d="M285.63,718A27.4,27.4,0,0,0,295.49,737q40.63,38.78,81.3,77.59l1.61,1.53c.84.81,1.69,1.63,2.55,2.44a39.59,39.59,0,0,0,29.32,9.7L742.08,801.7a2.08,2.08,0,0,0,1.91-2.24l-.27-3.45a2.07,2.07,0,0,0-2.24-1.9L414.05,820.28c-21,1.68-39.45-12.64-43-32.56-.22-1.27-.39-2.55-.49-3.85l-.24-3.07c-1.56-19.51,11.32-36.89,29.82-42l-85.79-50.19a2.06,2.06,0,0,0-1.21-.27l-2.33.18A27.39,27.39,0,0,0,285.63,718Z"/><path class="cls-10" d="M731.33,729.12,401.58,755.49"/><path class="cls-10" d="M732.6,745,402.84,771.32"/><path class="cls-10" d="M733.86,760.76,404.11,787.12"/><path class="cls-10" d="M735.17,777.06,405.41,803.43"/><path class="cls-7" d="M725.59,719.3l0,.52.3,0Z"/><path class="cls-11" d="M764,627.53a27.28,27.28,0,0,1-7.92,19.82l-73.17,85.29-1.45,1.68L679.14,737a39.6,39.6,0,0,1-28.21,12.57l-333.39,6.64a1.49,1.49,0,0,1-1.53-1.47l-.09-4.62a1.5,1.5,0,0,1,1.47-1.53l329-6.55c21-.42,38-16.51,39.59-36.69.09-1.28.13-2.57.1-3.88L686,698.4c-.44-22.2-19.13-39.84-41.74-39.39l-328.53,6.54a1.5,1.5,0,0,1-1.53-1.47l-.1-4.92a1.52,1.52,0,0,1,1-1.43l135.18-51.28a1.71,1.71,0,0,1,.51-.1L736,600.67A27.39,27.39,0,0,1,764,627.53Z"/><path class="cls-3" d="M758.5,644.49l-2.45,2.86"/><path class="cls-4" d="M686,698.4l.06,3.08c0,1.3,0,2.6-.1,3.88-1.59,20.18-18.56,36.27-39.59,36.69L322.9,748.49l-1.66-83,323-6.44C666.87,658.55,685.56,676.19,686,698.4Z"/><path class="cls-12" d="M764,627.53a27.32,27.32,0,0,1-7.92,19.82Q719.48,690,682.88,732.64l-1.45,1.68c-.76.9-1.53,1.8-2.3,2.69a39.56,39.56,0,0,1-28.2,12.57l-332.81,6.63a2.08,2.08,0,0,1-2.12-2l-.07-3.46a2.07,2.07,0,0,1,2-2.12l328.4-6.54c21-.42,38-16.51,39.59-36.69.09-1.28.13-2.57.1-3.88L686,698.4c-.39-19.56-14.94-35.58-33.86-38.81l80.37-58.47a2.12,2.12,0,0,1,1.18-.4l2.34-.05A27.39,27.39,0,0,1,764,627.53Z"/><path class="cls-10" d="M321.59,682.92l330.74-6.59"/><path class="cls-10" d="M321.91,698.8l330.74-6.59"/><path class="cls-10" d="M322.22,714.65,653,708.07"/><path class="cls-10" d="M322.55,731l330.74-6.58"/><path class="cls-7" d="M326.33,672.58v.52H326C326.15,672.93,326.24,672.75,326.33,672.58Z"/><path class="cls-13" d="M234.91,542.63a31.16,31.16,0,0,0,11,21.68l91.68,89.34,1.82,1.76,2.87,2.82a45.11,45.11,0,0,0,33.28,11.39L754.49,643.3a1.71,1.71,0,0,0,1.58-1.83l-.36-5.25a1.7,1.7,0,0,0-1.82-1.58L380,660.62c-23.9,1.66-44.79-14.87-48.64-37.61-.23-1.44-.41-2.91-.51-4.39l-.25-3.5c-1.75-25.24,17.66-47.15,43.36-48.93l373.4-26a1.7,1.7,0,0,0,1.58-1.82l-.39-5.59a1.71,1.71,0,0,0-1.24-1.53Q668,509.07,588.7,486.85a1.61,1.61,0,0,0-.58-.05L263.89,509.32a31.2,31.2,0,0,0-29,33.31Z"/><path class="cls-3" d="M242.84,561.32l3.08,3"/><path class="cls-4" d="M330.57,615.12l.25,3.5c.1,1.48.28,2.94.51,4.39,3.85,22.73,24.74,39.26,48.64,37.6l367.65-25.54-6.56-94.4L373.93,566.18C348.23,568,328.82,589.88,330.57,615.12Z"/><path class="cls-14" d="M234.91,542.63a31.13,31.13,0,0,0,11,21.68q45.81,44.66,91.67,89.34l1.82,1.76,2.87,2.82a45.11,45.11,0,0,0,33.28,11.39l379.08-26.33a1.55,1.55,0,0,0,1.44-1.66l-.38-5.56a1.55,1.55,0,0,0-1.66-1.44L380,660.62c-23.9,1.66-44.79-14.87-48.64-37.61-.23-1.44-.41-2.91-.51-4.39l-.25-3.5c-1.54-22.24,13.34-41.88,34.48-47.47l-97.34-58.31a1.54,1.54,0,0,0-.91-.22l-2.91.2a31.2,31.2,0,0,0-29,33.31Z"/><path class="cls-6" d="M742.44,560.55,366.53,586.66"/><path class="cls-6" d="M743.7,578.59,367.78,604.71"/><path class="cls-6" d="M745,596.61,369,622.73"/><path class="cls-6" d="M746.24,615.2,370.33,641.31"/><path class="cls-7" d="M736,549.29l0,.59.34,0C736.26,549.67,736.14,549.48,736,549.29Z"/><path class="cls-15" d="M724.74,426.05a27.33,27.33,0,0,1-8.53,19.57q-37.85,41.51-75.72,83l-1.5,1.63-2.37,2.62A39.66,39.66,0,0,1,608,544.62L274.6,541.14a1.48,1.48,0,0,1-1.48-1.51l.05-4.62a1.5,1.5,0,0,1,1.51-1.49l329,3.43c21,.22,38.48-15.35,40.68-35.47.12-1.28.2-2.57.22-3.87l0-3.08c.23-22.21-17.91-40.41-40.53-40.65l-328.57-3.42a1.51,1.51,0,0,1-1.49-1.52l.05-4.91a1.49,1.49,0,0,1,1-1.4Q343.46,419,411.8,395.47a1.22,1.22,0,0,1,.5-.08l285.32,3a27.37,27.37,0,0,1,27.12,27.69Z"/><path class="cls-3" d="M718.75,442.83l-2.54,2.79"/><path class="cls-4" d="M644.65,494.52l0,3.08c0,1.31-.1,2.6-.22,3.88-2.2,20.12-19.65,35.69-40.68,35.47l-323.53-3.37.87-83.06,323.06,3.36C626.74,454.12,644.88,472.31,644.65,494.52Z"/><path class="cls-16" d="M724.74,426.05a27.33,27.33,0,0,1-8.53,19.57q-37.85,41.51-75.72,83l-1.5,1.63-2.37,2.62A39.66,39.66,0,0,1,608,544.62l-332.86-3.47a2.08,2.08,0,0,1-2.06-2.1l0-3.46a2.08,2.08,0,0,1,2.1-2.06L603.72,537c21,.22,38.48-15.35,40.68-35.47.12-1.28.2-2.57.22-3.87l0-3.08c.2-19.57-13.86-36-32.67-39.82l82.11-56a2.11,2.11,0,0,1,1.19-.36l2.34,0a27.37,27.37,0,0,1,27.12,27.69Z"/><path class="cls-10" d="M280.88,468l330.79,3.45"/><path class="cls-10" d="M280.71,483.88l330.79,3.45"/><path class="cls-10" d="M280.55,499.74l330.79,3.44"/><path class="cls-10" d="M280.38,516.09l330.79,3.45"/><path class="cls-7" d="M285.93,457.81v.52h-.3C285.73,458.15,285.83,458,285.93,457.81Z"/><path class="cls-17" d="M356.75,483.88a72.56,72.56,0,0,0-13.05,27.9c-6.26,27.9,6.54,50.57,10.11,56.46q-.36-7.86-.73-15.7l13.77,12.74c-3.29-7-11.16-26.07-6.47-49.89A79.22,79.22,0,0,1,374,484.26l-17.29-.38"/><path class="cls-18" d="M384.8,382.48c-6.49-.24-53.63-1.29-83.46,34.72-24.66,29.77-25.71,70.87-14.47,99.94,21.26,55,77.57,40.8,141.38,103.8,5.45,5.38,90.08,90.8,61.22,153.86-14.05,30.71-52.94,51.58-91.06,48.26C354,819.2,322,783.54,314.06,750.92c-7.53-31,11.2-40.7,6.69-74.36-5.45-40.68-35.92-49.76-69.39-96.12-9.13-12.65-63.68-87.06-46.28-151.4,21.89-80.93,146-103.21,151.4-104.1"/><path class="cls-19" d="M495.43,744.71A135.25,135.25,0,0,1,455.67,764c-40.94,12.05-76.34.92-90.37-4.39,7.1,1.19,49.07,7.52,84.12-20.9a102,102,0,0,0,31.67-45.58,147,147,0,0,1,10.32,26.21,111.72,111.72,0,0,1,2.92,13.28A102.73,102.73,0,0,1,495.43,744.71Z"/><path class="cls-19" d="M454.94,651.78A85.48,85.48,0,0,1,441.44,667c-22.26,19.69-49.06,22.24-60.59,22.59,5.41-.87,35.72-6.3,51.12-32.76a62.67,62.67,0,0,0,7.89-23.46q4.49,5.1,9.05,10.73,3.13,3.87,6,7.67"/><path class="cls-19" d="M398.54,596.19c-4.3-3-9-6-14-9q-4.66-2.76-9.14-5.14a27.85,27.85,0,0,1,1.24,14.43c-2.43,12.84-14.69,23.28-31,26.82a83.2,83.2,0,0,0,52.87-27.16Z"/><path class="cls-19" d="M322.81,556.8A41.82,41.82,0,0,1,314,568a44.14,44.14,0,0,1-25.76,10.87c1.78-.53,13.37-4.21,18.37-15.92a27.88,27.88,0,0,0,1.68-15.83,97.38,97.38,0,0,0,7.9,5.71C318.5,554.35,320.71,555.65,322.81,556.8Z"/><path class="cls-19" d="M286.87,517.14a31.51,31.51,0,0,1-37.32,9.2,29.31,29.31,0,0,0,32.72-24.94q1,3,1.89,6.18Q285.6,512.42,286.87,517.14Z"/><path class="cls-19" d="M280.77,466.3a33.09,33.09,0,0,1-19.91,6.29c-15.43-.39-24.54-12-25.75-13.64A40.37,40.37,0,0,0,284.4,449c-.67,2.21-1.31,4.58-1.88,7.11A99,99,0,0,0,280.77,466.3Z"/><path class="cls-19" d="M301.34,417.2A29,29,0,0,1,283,412.28c-8.91-6.28-13.36-17.76-11.73-29.65a33.56,33.56,0,0,0,42.23,22.51q-2.21,1.86-4.49,4A107.77,107.77,0,0,0,301.34,417.2Z"/><path class="cls-19" d="M611,437.93l-322.29-.85c-17.05,0-32.81-10.46-41.26-27.37a205.13,205.13,0,0,1-19.11-59,247,247,0,0,1-2.61-33.09c0-119.39,100.4-216.16,224.26-216.16s224.26,96.77,224.26,216.16a208.9,208.9,0,0,1-21.44,92.35C644.29,427.21,628.34,438,611,437.93Z"/><path class="cls-20" d="M589.27,351.39q-6.57-3.58-13.13-7.14a34.52,34.52,0,0,1,.79,30.05l-8.07-9.5A62.88,62.88,0,0,1,560.64,414L552,401.56a58.07,58.07,0,0,1-1.29,15.16,58.66,58.66,0,0,1-8.19,19.46l-14-3.75a51,51,0,0,1-.55,17.28,50.43,50.43,0,0,1-7,17.12l-12.26-9.54a33.07,33.07,0,0,1-10.21,31.33l-10.23-8.85a66.29,66.29,0,0,1-37.75,32.06,65.9,65.9,0,0,1-38-32.06l-10.21,8.85a32.92,32.92,0,0,1-7.84-10.55,34,34,0,0,1-2.37-20.78L380,466.83a50.76,50.76,0,0,1-7.49-34.4l-14,3.75a59.45,59.45,0,0,1-6.13-12.27A58.33,58.33,0,0,1,349,401.56q-4.33,6.19-8.65,12.4a62.72,62.72,0,0,1-8.23-49.16l-8.07,9.5a36.05,36.05,0,0,1-2.21-22,33.6,33.6,0,0,1,3-8l-13.14,7.14A175.81,175.81,0,0,1,305,322.72c-.8-5.4-1.8-13.84-2-36.66-.21-26.19.92-37,.43-37,0,0-.06,0-.11.11.44-4.33.86-7.42,1.09-9Q323.53,142,342.6,43.81a187.13,187.13,0,0,1,69.64,61.59,140.66,140.66,0,0,1,70.28,0,187.59,187.59,0,0,1,69.67-61.59q19.63,98.61,39.29,197.2-2.93-14.31-6.41-27.57a1.21,1.21,0,0,0-.05-.18c-.6-2.38-1.22-4.73-1.89-7,.27,2,9.28,46.58,9.92,89.69A341.15,341.15,0,0,1,589.27,351.39Z"/><path class="cls-21" d="M589.27,351.39l-13.13-7.15a34.59,34.59,0,0,1,.8,30.06,36.07,36.07,0,0,0-6.51-14.48c-3.51-4.59-7.46-6.93-12.95-10.66s-10.1-5.61-22-13c-29.74-18.69-55.15-59.71-63-90.67-1.38-5.39-4.12-18.07-14-23.2a22.18,22.18,0,0,0-19.74,0c-9.82,5.07-12.66,17.5-13.93,22.42-7.68,29.74-32.53,72.31-63.1,91.45-7.37,4.62-14.75,9.23-22.41,13.33-4.2,2.25-7.52,3.9-10.41,7.59-4.52,5.77-5,12.77-4.87,17.26a34.9,34.9,0,0,1,.79-30.06q-6.56,3.58-13.13,7.15a259.77,259.77,0,0,1-7.51-35.11c-4.3-30.1-2.4-54.71.22-76.2,4.9-40,17.21-109.32,38.18-196.29a187.07,187.07,0,0,1,69.63,61.58,141,141,0,0,1,70.29,0A187.52,187.52,0,0,1,552.2,43.79c26.44,92.42,38,165.45,40.31,202.31a623,623,0,0,1,.09,72.06C591.68,331.75,590.37,343.13,589.27,351.39Z"/><path class="cls-22" d="M466.91,302.82c-4.33,0-10.09-1.06-14.47-5.76a19.78,19.78,0,0,1-5-12V263h2.73v22a17.23,17.23,0,0,0,4.31,10.42c6.45,6.94,16.61,4.57,17.76,4.28a20.44,20.44,0,0,0,10.33-6.56l2.13,1.61A23.22,23.22,0,0,1,473,302.12,26,26,0,0,1,466.91,302.82Z"/><path class="cls-22" d="M430.51,302.82a26,26,0,0,1-6.08-.7,23.23,23.23,0,0,1-11.73-7.42l2.13-1.61a20.39,20.39,0,0,0,10.33,6.56c1.14.29,11.31,2.65,17.76-4.28a17.18,17.18,0,0,0,4.3-10.5V263H450v22a19.74,19.74,0,0,1-5,12.11C440.61,301.75,434.84,302.82,430.51,302.82Z"/><path class="cls-23" d="M463.05,254.24l-11.56,11.57a3.93,3.93,0,0,1-5.55,0l-11.56-11.57a3.92,3.92,0,0,1,2.77-6.69h23.13A3.92,3.92,0,0,1,463.05,254.24Z"/><circle class="cls-24" cx="504.74" cy="210.28" r="29.62"/><circle class="cls-23" cx="505.21" cy="209.94" r="19.47"/><circle class="cls-24" cx="498.67" cy="202.02" r="4.64"/><circle class="cls-24" cx="389.26" cy="210.28" r="29.62"/><circle class="cls-23" cx="389.74" cy="209.94" r="19.47"/><circle class="cls-24" cx="383.19" cy="202.02" r="4.64"/><path class="cls-19" d="M335.05,156.92q8.81-37.26,17.63-74.54a70.4,70.4,0,0,1,36.46,31.21c-4,1.83-8.12,3.94-12.31,6.38A146,146,0,0,0,335.05,156.92Z"/><path class="cls-19" d="M558.83,156.92,541.19,82.38a70.31,70.31,0,0,0-36.45,31.21c4,1.83,8.12,3.94,12.31,6.38A146.13,146.13,0,0,1,558.83,156.92Z"/><path class="cls-19" d="M412.24,105.4a57.58,57.58,0,0,0-10.71,24.23c-3.63,19.84,4.57,35.44,7.26,40.11a107.6,107.6,0,0,1,23.23-68c-3.11.31-6.44.77-10,1.41S415.25,104.59,412.24,105.4Z"/><path class="cls-19" d="M482.64,105.4a57.58,57.58,0,0,1,10.71,24.23c3.64,19.84-4.57,35.44-7.26,40.11a107.44,107.44,0,0,0-23.23-68c3.37.36,7,.87,10.79,1.6C476.83,104,479.84,104.67,482.64,105.4Z"/><path class="cls-19" d="M458.77,101.4a289.08,289.08,0,0,1-12.06,79.78,224.72,224.72,0,0,1-10.86-79.77c3-.24,6.18-.4,9.52-.45,4.79-.07,9.28.11,13.4.44"/><path class="cls-25" d="M756.16,636.88c-1.87,1.47,3,11.77,8.81,19.49a65.17,65.17,0,0,0,17.84,16.29,59.6,59.6,0,0,0,5.89-2.21c2.33-1,3.27-1.62,5.38-2.5a42.88,42.88,0,0,1,6.18-2,184.2,184.2,0,0,1-26.65-16.67C763.37,641.55,757.73,635.63,756.16,636.88Z"/><path class="cls-26" d="M788.18,715.58a201.38,201.38,0,0,0,10.53,24.84c1,2,2.1,3.94,3.15,5.9s2.23,3.85,3.47,5.7,2.44,3.7,3.69,5.53,2.6,3.57,4,5.28a115.55,115.55,0,0,0,8.84,9.78,108.31,108.31,0,0,0,9.92,8.61c1.75,1.34,3.53,2.65,5.36,4s3.7,2.64,5.58,4.13a30.55,30.55,0,0,1,5.38,5.35,21.29,21.29,0,0,1,3.53,7.16,26,26,0,0,1,1,7.75,27.34,27.34,0,0,1-1.39,7.55,54.89,54.89,0,0,1-6.55,12.8c-2.55,3.87-5.19,7.5-7.59,11.19a57.57,57.57,0,0,0-5.95,11.38,31,31,0,0,0-1.47,6,28,28,0,0,0-.1,6.21,29.82,29.82,0,0,0,1.3,6.15,35.54,35.54,0,0,0,2.63,5.85,50.66,50.66,0,0,0,8,10.47,101.71,101.71,0,0,0,10.12,8.93c-7.93-4.33-15.49-9.87-21-17.61a38.9,38.9,0,0,1-3.46-6.23,34.47,34.47,0,0,1-2.07-6.94,29.33,29.33,0,0,1-.38-7.31,36.38,36.38,0,0,1,1.31-7.2,49.83,49.83,0,0,1,2.57-6.72c1-2.16,2.16-4.2,3.33-6.2,2.34-4,4.94-7.75,7.24-11.51a50.12,50.12,0,0,0,5.59-11.34,21.15,21.15,0,0,0,1-5.74,19.24,19.24,0,0,0-.72-5.64,14.27,14.27,0,0,0-2.39-4.94,24.48,24.48,0,0,0-4.2-4.19c-3.27-2.69-7.12-5.3-10.69-8.25a100.67,100.67,0,0,1-19-20.28C798,750.92,791.45,733.37,788.18,715.58Z"/><path class="cls-27" d="M776,754.73c9.21,7.34,41.35,1.36,50.5-18.49,8-17.41-4.25-39.93-6.31-43.93-8.37-16.29-18.07-22.62-16.75-35.61a26.24,26.24,0,0,1,2.38-8.48c-.4.39-1,1-1.73,1.77-7.24,7.66-9.72,14-11.11,13.56-.43-.15-.85-1-.58-4.34a153.6,153.6,0,0,0-21.09-41.45,14,14,0,0,1,1.68,4.78,14.34,14.34,0,0,1-.5,6.19c-2.75,9.42-18.07,29.12-17.64,37.93.19,3.83,1.36,5.17,1.58,11.6a74.68,74.68,0,0,1-.7,13.13,25,25,0,0,0,1.09,12.27A26.91,26.91,0,0,0,760,710c8.5,13.65,12.76,20.48,12,27.22-.44,4.07-2.23,5.72-1.29,9.67A15.73,15.73,0,0,0,776,754.73Z"/><path class="cls-28" d="M788.45,737.49c6.85-17.53-.69-33.54-2.18-36.56a15.88,15.88,0,0,0-8.83-9.11,14.28,14.28,0,0,0-9.59-.3c-6,2.23-10,10-8.9,18.87q5.59,17.43,11.2,34.86a14.12,14.12,0,0,0,2.71,6.5l3.11,3A43.28,43.28,0,0,0,788.45,737.49Z"/><path class="cls-26" d="M764.72,750.5h16.72a.17.17,0,0,1,.17.17v.5a1.64,1.64,0,0,1-1.64,1.64H765.65a1.44,1.44,0,0,1-1.44-1.44V751a.51.51,0,0,1,.51-.51Z" transform="translate(701.97 1827.46) rotate(-130.43)"/><ellipse class="cls-29" cx="832.62" cy="618.47" rx="28.51" ry="23" transform="translate(-160.91 320.71) rotate(-19.92)"/><path class="cls-27" d="M768,605.08c.07,10.19,9.32,24.85,11.69,28.85,5,8.49,10.3,21.45,10.88,40.89l9.61,5.64A34.64,34.64,0,0,1,798.65,665c1.79-13.47,11.22-21.42,13.68-23.37A88.57,88.57,0,0,1,830.45,618c-4.83-10-11.16-14.82-14.66-17a49.81,49.81,0,0,0-15.41-5.86c-7.55-1.7-11.76-1-18.86-4a40.48,40.48,0,0,1-7.43-4.14l-1.8,1-2,4.25A37.09,37.09,0,0,0,768,605.08Z"/><rect class="cls-30" x="771.81" y="586.81" width="4.84" height="3.71" rx="1.86" transform="translate(709.4 1559.11) rotate(-123.42)"/><circle class="cls-31" cx="802.5" cy="608.65" r="2.46"/><circle class="cls-24" cx="800.81" cy="608.23" r="0.42"/><path class="cls-24" d="M790.3,607.09a17.38,17.38,0,0,1,2.85,4.08,19.67,19.67,0,0,1,1.62,4.74,19.05,19.05,0,0,1,.26,5,17,17,0,0,1-1.13,4.84,26,26,0,0,0,.6-4.87,21.2,21.2,0,0,0-.4-4.84,22.33,22.33,0,0,0-1.43-4.65A27,27,0,0,0,790.3,607.09Z"/><path class="cls-24" d="M789.17,607.24a10,10,0,0,1,1.42,3.15,10.5,10.5,0,0,1,.28,3.49,10,10,0,0,1-2.83,6.23,14.36,14.36,0,0,0,2.15-6.29A14.7,14.7,0,0,0,789.17,607.24Z"/><path class="cls-24" d="M787.77,607.1a8.1,8.1,0,0,1,.6,3.39,8.45,8.45,0,0,1-.85,3.41,9.05,9.05,0,0,1-5.14,4.48,12.31,12.31,0,0,0,4.53-4.79A10.78,10.78,0,0,0,787.77,607.1Z"/><path class="cls-27" d="M842.24,607.18c1,.28,17,5.29,19.5,19.6a23.37,23.37,0,0,1-3.14,15.77c-5.3,8.77-15.54,12.45-24.23,12-13.72-.75-21.21-11.7-22-12.95,2.11-5.05,4.2-10.49,6.18-16.29,2.09-6.09,3.84-11.93,5.31-17.46A30.67,30.67,0,0,1,842.24,607.18Z"/><path class="cls-26" d="M825.33,616.76a22.49,22.49,0,0,1-6.94,17.18c7,8.35,17.29,9.94,22.79,5.8a12.67,12.67,0,0,0,4.38-12.81c-1.51-5.62-7-8-9.42-8.93A21.25,21.25,0,0,0,825.33,616.76Z"/><path class="cls-28" d="M786.34,643.64c-1.55-10.27-5.1-10.77-12.3-30.18a106.65,106.65,0,0,1-4.87-17.7,33.59,33.59,0,0,0-1.17,9.32c0,2.82.55,4.6,1.4,9.09,0,0,.39,2.05,1.81,10.71,1.9,11.62-14.47,21.85-18.19,41.82-2.66,14.34,1.84,30.19,3.77,37,.8,2.81,1.58,5.12,2.16,6.73l27.32-9.46A69.11,69.11,0,0,1,782,680.28C781.05,661.92,788.51,658,786.34,643.64Z"/><path class="cls-32" d="M551.24,677.62a72.64,72.64,0,0,0-12.43,28.18c-5.64,28,7.65,50.42,11.35,56.22l-1.08-15.68,14,12.44c-3.44-6.9-11.73-25.83-7.56-49.74a79,79,0,0,1,13-31.42h-17.3"/><path class="cls-18" d="M228.7,282.13c.72-4.22,1.62-8.68,2.73-13.33,1-4.28,2.14-8.33,3.29-12.14,2.11.86,4.35,1.68,6.7,2.42A88.39,88.39,0,0,0,272,263a97.74,97.74,0,0,1-28.88,15.55,96.45,96.45,0,0,1-14.39,3.62"/><path class="cls-18" d="M227.61,344.74q-.72-5.26-1.21-11c-.43-5.06-.64-9.87-.7-14.41,2.28.23,4.65.38,7.11.41a91.29,91.29,0,0,0,39.85-8.77,158.71,158.71,0,0,1-32.73,26.93C235.72,340.48,231.6,342.75,227.61,344.74Z"/><path class="cls-18" d="M671.22,282.58c-.72-4.22-1.62-8.68-2.74-13.33-1-4.29-2.13-8.34-3.29-12.14q-3.16,1.29-6.7,2.42A88.31,88.31,0,0,1,628,263.41,97.61,97.61,0,0,0,656.83,279a96.45,96.45,0,0,0,14.39,3.62"/><path class="cls-18" d="M672.3,345.19q.74-5.26,1.22-11c.42-5.06.64-9.87.7-14.41q-3.42.35-7.11.41a91.22,91.22,0,0,1-39.85-8.77A158.63,158.63,0,0,0,660,338.32C664.19,340.92,668.32,343.2,672.3,345.19Z"/><path class="cls-33" d="M822.19,732.18a15.36,15.36,0,0,0-3.4.6,3.82,3.82,0,0,1-2.83-.2c-.42-.25-1.05-.84-1-1.41s.89-.91,2.5-1.66c.35-.17.47-.21.65-.29.85-.39,3-1.38,3.46-3.24a3.3,3.3,0,0,0-.91-3.17,3.14,3.14,0,0,0-2.05-.68,4.44,4.44,0,0,0-2,.53,9.32,9.32,0,0,0-3.26,2.32,7.31,7.31,0,0,0-1.76,2.94,6.62,6.62,0,0,0-.17,3,5.52,5.52,0,0,0,1.16,2.59,5.67,5.67,0,0,0,1.83,1.43,7.11,7.11,0,0,0,2.59.77,8.12,8.12,0,0,0,4.55-1c1.35-.65,1.49-1.1,1.52-1.32a1.27,1.27,0,0,0-.55-1.13A1,1,0,0,0,822.19,732.18Zm-7.83-3.69c-.36-.42.72-2.25,2.26-3,.48-.24,1.42-.62,1.7-.3s-.39,1.4-.44,1.48a3.69,3.69,0,0,1-1.21,1.09C816.19,728,814.68,728.86,814.36,728.49Z"/><rect class="cls-33" x="815.26" y="714.9" width="1.9" height="5.52" rx="0.93" transform="translate(-112.49 153.08) rotate(-10.03)"/><rect class="cls-33" x="819.6" y="715.05" width="1.9" height="5.52" rx="0.93" transform="translate(294.53 -237.1) rotate(19.97)"/><rect class="cls-33" x="811.45" y="716.49" width="1.9" height="5.52" rx="0.93" transform="translate(1897.08 747.51) rotate(139.97)"/><rect class="cls-33" x="809.06" y="719.8" width="1.9" height="5.52" rx="0.93" transform="translate(1783.57 242.58) rotate(112.02)"/><rect class="cls-33" x="822.98" y="717.34" width="1.9" height="5.52" rx="0.93" transform="translate(806.28 -374.02) rotate(47.92)"/><path class="cls-18" d="M275.73,422.65a3.73,3.73,0,0,1-.8-2.31h0a6.68,6.68,0,0,1,1.41-3.83h0a10.12,10.12,0,0,1,3-2.79h0a4.63,4.63,0,0,1,2.21-.71h0a2,2,0,0,1,.43,0h0a4.11,4.11,0,0,1,2.46,1.22h0c.1.12.2.23.29.35h0c.06-.74.14-1.66.22-2.61h0c.19-2.25.38-4.73.37-5.49h0c0-.06,0-.11,0-.14h0a5.4,5.4,0,0,1-.2-1.24h0a1.51,1.51,0,0,1,.16-.76h0a.91.91,0,0,1,.8-.45h0a1.85,1.85,0,0,1,1.88,1.84h0a2,2,0,0,1-.1.64h0s0,0,0,.07h0c0,.07,0,.17,0,.28h0c0,.24-.08.56-.12,1h0c-.09.78-.19,1.81-.28,2.95h0c-.18,2.07-.34,4.49-.39,6.3h0a2,2,0,0,1,.62.28h0a1.16,1.16,0,0,1,.44.63h0a2,2,0,0,1,.08.53h0a1.14,1.14,0,0,1-.23.74h0a1.34,1.34,0,0,1-.54.41h0a6.31,6.31,0,0,1-.68.26h0a8.3,8.3,0,0,1,.13,1.24h0a3.26,3.26,0,0,1-.06.7h0a1.25,1.25,0,0,1-.36.69h0a.92.92,0,0,1-.6.24h-.12a2,2,0,0,1-.94-.33h0a1.45,1.45,0,0,1-.51-.67h0c0-.11-.06-.22-.08-.32h0c-.4.25-.93.58-1.54.91h0a10.48,10.48,0,0,1-4.48,1.45h0a3,3,0,0,1-2.44-1.07Zm3.17-5.4a5.67,5.67,0,0,0-1.49,3.15h0a.86.86,0,0,0,.19.6h0a1,1,0,0,0,.74.26h0a6.26,6.26,0,0,0,2.59-.95h0c.92-.5,1.9-1.14,2.83-1.72h0c0-.19-.1-.45-.19-.74h0a5.82,5.82,0,0,0-.86-1.85h0a1.43,1.43,0,0,0-.82-.56h-.25a4.47,4.47,0,0,0-2.74,1.82ZM290.72,421a10.89,10.89,0,0,1-1.4-3.32h0a28.05,28.05,0,0,1-.79-5.36h0c0-.07,0-.14,0-.21h0a1.47,1.47,0,0,1,.27-.92h0a1,1,0,0,1,.8-.4h0l.21,0h0a1.42,1.42,0,0,1,1.07.69h0a1.63,1.63,0,0,1,.2.81h0c0,.22,0,.44,0,.65h0a22.05,22.05,0,0,0,.38,4.19h0a5.51,5.51,0,0,0,.9,2.31h0c.23.26.39.32.55.32h0a.76.76,0,0,0,.36-.1h0a2.67,2.67,0,0,0,1.11-1.29h0a8.22,8.22,0,0,0,.61-2.09h0a19.53,19.53,0,0,0,.21-3.25h0V413h0a1.72,1.72,0,0,1,.18-.86h0a1.24,1.24,0,0,1,1.1-.58h.09a1.1,1.1,0,0,1,.77.31h0a1.42,1.42,0,0,1,.36.54h0a2.42,2.42,0,0,1,.17.67h0v.11c0,.31-.1,1.62-.34,3.13h0a13.32,13.32,0,0,1-1.38,4.54h0a3.2,3.2,0,0,1-2.23,1.73h0a3.27,3.27,0,0,1-.44,0h0a3.36,3.36,0,0,1-2.75-1.62Zm10.55,2.34H301a1.49,1.49,0,0,1-1-.57h0a1.38,1.38,0,0,1-.22-.55h0l-.14,0h0a1.24,1.24,0,0,1-.77-.57h0v-.05a.67.67,0,0,1-.05-.16h0s0-.05,0-.08h0c0-.05,0-.1,0-.17h0c0-.14,0-.33,0-.55h0c0-.46,0-1.08,0-1.79h0a48.84,48.84,0,0,1,.17-4.95h0a1.53,1.53,0,0,1-.39-.86h0v-.11h0a1.19,1.19,0,0,1,.36-.83h0a2.11,2.11,0,0,1,.43-.36h0c0-.07,0-.16,0-.26h0c.07-.31.16-.75.25-1.26h0a19.6,19.6,0,0,0,.34-3.34h0a1,1,0,0,0,0-.17h0a2.54,2.54,0,0,0-.1-.46h0a3.54,3.54,0,0,1-.15-.82h0a1.24,1.24,0,0,1,.25-.78h0a1.28,1.28,0,0,1,.85-.43h.11a1.14,1.14,0,0,1,.72.28h0a2.22,2.22,0,0,1,.46.58h0a3.79,3.79,0,0,1,.43,1.72h0a1.09,1.09,0,0,1,0,.18h0a9,9,0,0,1-.24,2.11h0c-.11.57-.26,1.21-.41,2.12h0a10.36,10.36,0,0,1,2.93.4h0A4.88,4.88,0,0,1,307.9,414h0a2.23,2.23,0,0,1,.21.9h0a4.29,4.29,0,0,1-.71,2.15h0a13.78,13.78,0,0,1-1.55,2.07h0a38.15,38.15,0,0,1-3.15,3.08h0l-.34.31h0a1.38,1.38,0,0,0-.23.29h0a1.26,1.26,0,0,1-.37.39h0a.93.93,0,0,1-.47.13h0Zm-.14-6.15a24.3,24.3,0,0,0,.19,3h0c.24-.19.54-.44.85-.71h0a17.27,17.27,0,0,0,2.65-2.76h0a3.2,3.2,0,0,0,.69-1.6h0a.76.76,0,0,0-.07-.32h0a2.13,2.13,0,0,0-1.25-.8h0a7.58,7.58,0,0,0-2.26-.31h0l-.48,0h0c0,.18-.07.4-.11.66h0a20.77,20.77,0,0,0-.21,2.32h0v.53Zm9.24,6.73a1.66,1.66,0,0,1-.91-.31h0a1,1,0,0,1-.4-.61h0a3.4,3.4,0,0,1-.14-.72h0c-.06-.55-.09-1.26-.1-2.08h0c0-3.21.26-8.15.45-11h0c.09-1.46.15-2.71.21-3.68h0a11.17,11.17,0,0,1,.25-2.11h0A1,1,0,0,1,310,403h0a1.37,1.37,0,0,1,.89-.4h0a1.63,1.63,0,0,1,1.15.57h0a1.23,1.23,0,0,1,.3.51h0a1.79,1.79,0,0,1,.09.62h0c0,.53-.09,1.26-.24,2.54h0c-.15,1.28-.36,3.1-.59,5.73h0a59.82,59.82,0,0,0-.25,6h0c0,1.18.07,2.24.16,3.1h0c0,.11,0,.26,0,.42h0a4.36,4.36,0,0,1-.06.78h0a1.52,1.52,0,0,1-.39.82h0a1,1,0,0,1-.69.29h0Zm4.09-1.79.24-.52-.25.52a3.79,3.79,0,0,1-1.54-1.6h0a5.57,5.57,0,0,1-.7-2.65h0a5.44,5.44,0,0,1,.41-2.16h0a12.51,12.51,0,0,1,2.15-3.73h0a3.88,3.88,0,0,1,2.42-1.37h.22a3.83,3.83,0,0,1,2.33.87h0a5.05,5.05,0,0,1,1.78,3.17h0a6.66,6.66,0,0,1,.1,1.07h0a6.53,6.53,0,0,1-2.1,4.81h0a6.21,6.21,0,0,1-3.92,1.83h0a2.73,2.73,0,0,1-1.14-.23Zm3.18-8.92-.18.07h0a2.71,2.71,0,0,0-.71.46h0a6.94,6.94,0,0,0-1.93,3.34h0a2.24,2.24,0,0,0-.1.74h0a3.27,3.27,0,0,0,.28,1.33h0a1.2,1.2,0,0,0,.66.69h0a.66.66,0,0,0,.21,0h0a2.9,2.9,0,0,0,1.54-.73h0a4.3,4.3,0,0,0,1.16-1.36h0a5.38,5.38,0,0,0,.62-2.32h0a3.21,3.21,0,0,0-.33-1.38h0a1.88,1.88,0,0,0-.46-.69h0a1.16,1.16,0,0,0-.46-.21h0l-.27,0h0Zm-.15-.13,0-.43,0,.43Zm-51.65,4.17a9.73,9.73,0,0,1,1.66-2,10.84,10.84,0,0,1,4.56-2.17l.8.07a3.35,3.35,0,0,1,1.79.83,2,2,0,0,1,.43,2,3.49,3.49,0,0,1-1.69,2.26,8.12,8.12,0,0,1-3,1.11c-1.1.17-1.7.37-1.82.6s0,.52.42.86a6.64,6.64,0,0,0,2.8.92,12.58,12.58,0,0,0,3.68.23,14.1,14.1,0,0,0,2.4-.49c.62-.21,1.3.45,1.64.4s.6.16.75.62c-.71.78-1.64.55-2.4.86a13.25,13.25,0,0,1-2.82.76,17.15,17.15,0,0,1-4,.09l-.93-.12a11.7,11.7,0,0,1-3.32-1.11,4.32,4.32,0,0,1-1.24-1.2A4,4,0,0,1,265,420,7,7,0,0,1,265.84,417.26Zm2.54.81a8.73,8.73,0,0,0,3-1c.53-.35.77-.71.75-1.07s-.42-.39-1.18-.11a4,4,0,0,0-1.61.94A11.14,11.14,0,0,0,268.38,418.07Z"/><path class="cls-18" d="M317,431.69A11.3,11.3,0,0,1,311.2,429h0a.89.89,0,0,1-.32-.66h0a.81.81,0,0,1,0-.16h0a1.28,1.28,0,0,1,.37-.73h0A1.34,1.34,0,0,1,312,427h0l.15,0h0a1.13,1.13,0,0,1,.74.3h0a6.92,6.92,0,0,0,1.59,1h0a13.21,13.21,0,0,0,1.85.74h0a13.6,13.6,0,0,0,2.89.52h0c.32,0,.64,0,1,0h0a10.58,10.58,0,0,0,1.95-.21h0a11.24,11.24,0,0,0,2.48-.79h0a5.64,5.64,0,0,0,2.53-2.87h0a15.29,15.29,0,0,0,.72-4.74h0c-.16.22-.33.44-.51.65h0a6,6,0,0,1-1.06.95h0a4.2,4.2,0,0,1-1.62.66h0l-.29,0h0a1.83,1.83,0,0,1-.76-.17h0a2.66,2.66,0,0,1-.81-.56h0a3.92,3.92,0,0,1-1.09-2.56h0c0-.1,0-.19,0-.28h0a6.71,6.71,0,0,1,.51-2.68h0a18.17,18.17,0,0,1,1.39-2.71h0c.13-.2.37-.53.73-1h0a11.25,11.25,0,0,1,1.3-1.41h0a7.59,7.59,0,0,1,1.64-1.15h0a2.49,2.49,0,0,1,1.16-.31h0a2.33,2.33,0,0,1,.64.07h0a.88.88,0,0,1,.35.17h0a.46.46,0,0,1,.17.32h0s0,0,0,.06h0a1.15,1.15,0,0,1-.29.57h.09l.39,0h0c.68.1,1.12.5,1.12,1.09h0v.1h0l-.24,4.77h0c-.08,1.6-.25,3.19-.42,4.77h0a17.94,17.94,0,0,1-.8,4h0a8.21,8.21,0,0,1-.8,1.7h0a7.26,7.26,0,0,1-2.22,2.12h0a10.65,10.65,0,0,1-2.91,1.26h0a13.48,13.48,0,0,1-3.3.47h0a15.91,15.91,0,0,1-3.26-.28ZM328,412.82a6.89,6.89,0,0,0-.51.55h0l-.54.68h0a7.59,7.59,0,0,0-.89,1.34h0c-.23.46-.46.93-.68,1.41h0a7.13,7.13,0,0,0-.88,3h0v0h0a3.15,3.15,0,0,0,.11.84h0a.38.38,0,0,0,.16.25h0l0,0h0l.14-.12h0a4,4,0,0,0,.44-.55h0a15.13,15.13,0,0,0,1.26-2.44h0a20.36,20.36,0,0,0,.9-2.59h0l.73-2.59h0l-.3.26Z"/><path class="cls-18" d="M333.44,423a5.88,5.88,0,0,1-1.92-1.75h0a.91.91,0,0,1-.17-.49h0a.92.92,0,0,1,.07-.36h0a1.62,1.62,0,0,1,.49-.69h0a1.51,1.51,0,0,1,.77-.33h.1a.83.83,0,0,1,.68.35h0a4,4,0,0,0,1.16,1.06h0a.83.83,0,0,0,.48.15h0a.77.77,0,0,0,.55-.29h0l0-.05h0a1.12,1.12,0,0,1,.05-.13h0a1.47,1.47,0,0,0,.08-.56h0v0h0a2.54,2.54,0,0,0-.21-.86h0a2.82,2.82,0,0,0-.85-1.05h0c-.24-.19-.48-.37-.74-.54h0a3.29,3.29,0,0,1-.74-.65h0a2.75,2.75,0,0,1-.66-1.74h0a3.64,3.64,0,0,1,0-.57h0a3.66,3.66,0,0,1,1.42-2.41h0a6.4,6.4,0,0,1,2.47-1.24h0l.2,0h0a.72.72,0,0,1,.57.25h0a.79.79,0,0,1,.23.57h0a1,1,0,0,1,0,.17h0a1.5,1.5,0,0,1-.93,1.14h0a4.91,4.91,0,0,0-.69.42h0a2.83,2.83,0,0,0-.65.64h0a1.35,1.35,0,0,0-.28.69h0a.13.13,0,0,0,0,.06h0a.79.79,0,0,0,.34.56h0c.26.22.54.43.82.63h0a3.82,3.82,0,0,1,.82.74h0a7.83,7.83,0,0,1,.84,1.18h0a3.46,3.46,0,0,1,.49,1.4h0c0,.16,0,.32,0,.48h0a4.27,4.27,0,0,1-.42,1.92h0a3,3,0,0,1-1.84,1.59h0a3.46,3.46,0,0,1-1,.19h0a3,3,0,0,1-1.58-.42Zm2.38-2.32v0Zm-.07-.06,0-.05,0,.05Z"/><path class="cls-18" d="M330.83,406.57c.18-.27.37-.53.77-.49a.6.6,0,0,1,.55.64,1.33,1.33,0,0,1-.22.54l-1,1.6c-.18.27-.37.53-.77.49a.6.6,0,0,1-.55-.64,1.33,1.33,0,0,1,.22-.54Z"/><path class="cls-18" d="M327.18,406.34a.81.81,0,0,1,.32-.86.59.59,0,0,1,.82.18,1.15,1.15,0,0,1,.15.57l.15,1.89a.81.81,0,0,1-.32.86.59.59,0,0,1-.82-.18,1.15,1.15,0,0,1-.15-.57Z"/><path class="cls-18" d="M324.16,407.4a.83.83,0,0,1,0-.92.61.61,0,0,1,.83-.16,1.25,1.25,0,0,1,.36.47l.87,1.68a.81.81,0,0,1,0,.92.59.59,0,0,1-.82.16,1.26,1.26,0,0,1-.37-.47Z"/><path class="cls-18" d="M324.12,409.83c.28.17.55.36.53.75a.61.61,0,0,1-.61.59,1.31,1.31,0,0,1-.56-.2l-1.63-1c-.28-.17-.55-.35-.53-.75a.6.6,0,0,1,.61-.58,1.19,1.19,0,0,1,.56.2Z"/><path class="cls-18" d="M333.35,408.6a.79.79,0,0,1,.9-.14.61.61,0,0,1,.25.81,1.22,1.22,0,0,1-.43.41l-1.57,1.05a.82.82,0,0,1-.9.14.61.61,0,0,1-.25-.81,1.22,1.22,0,0,1,.43-.41Z"/><path class="cls-34" d="M715.15,671.45l-16.87,18,24.6.16Z"/><path class="cls-35" d="M816.78,644.31l-3.85-9.06L717.09,676a5.47,5.47,0,0,0-1.19,2.24,5.33,5.33,0,0,0,.19,3.39l.12.28a5.38,5.38,0,0,0,2.36,2.49,5.49,5.49,0,0,0,2.37.66Z"/><path class="cls-36" d="M698.28,689.47,721,685.12l1.91,4.51Z"/><rect class="cls-37" x="814.53" y="628.29" width="8.24" height="19.76" transform="translate(-184.45 371.28) rotate(-23.04)"/><rect class="cls-38" x="821.89" y="623.94" width="13.96" height="19.76" rx="6.98" transform="translate(-181.94 374.93) rotate(-23.04)"/><path class="cls-39" d="M698.28,689.47,717.07,676l-1.92-4.5Z"/><path class="cls-40" d="M816.78,644.3l-95.84,40.76a2.71,2.71,0,0,0-.69,3.58,2.61,2.61,0,0,0,2.63,1l95.84-40.75Z"/><path class="cls-41" d="M816.18,642.9l-2.63-6.18L715.9,678.25a5.33,5.33,0,0,0,.19,3.39l.12.28a5.38,5.38,0,0,0,2.36,2.49Z"/><rect class="cls-42" x="817.42" y="642.49" width="8.24" height="4.97" transform="translate(-186.89 372.95) rotate(-23.04)"/><rect class="cls-43" x="811.63" y="628.87" width="8.24" height="4.97" transform="translate(-182.02 369.6) rotate(-23.04)"/><path class="cls-44" d="M825.12,638.15H838.4a.34.34,0,0,1,.34.34v0a4.63,4.63,0,0,1-4.63,4.63h-9a.34.34,0,0,1-.34-.34v-4.3a.34.34,0,0,1,.34-.34Z" transform="translate(-184.37 376.6) rotate(-23.04)"/><path class="cls-45" d="M819.33,624.52h9a4.63,4.63,0,0,1,4.63,4.63v0a.34.34,0,0,1-.34.34H819.33a.34.34,0,0,1-.34-.34v-4.3a.34.34,0,0,1,.34-.34Z" transform="translate(-179.5 373.25) rotate(-23.04)"/><path class="cls-46" d="M812.93,635.25,717.09,676a2.7,2.7,0,0,1-3.05-2,2.58,2.58,0,0,1,1.11-2.59L811,630.68Z"/><path class="cls-41" d="M702.77,687.57a5,5,0,0,0-1.21-1.6l-3.28,3.5,5,0A5,5,0,0,0,702.77,687.57Z"/><path class="cls-27" d="M748,638c-2.19,1.75,4.48,14.8,12,24.67A91.23,91.23,0,0,0,783,683.69,64.79,64.79,0,0,0,790,681.2c2.8-1.18,3.91-1.88,6.44-2.88a48.6,48.6,0,0,1,7.45-2.26,251.56,251.56,0,0,1-33.71-21.94C757.18,644.08,749.9,636.47,748,638Z"/></svg>